<mxfile host="app.diagrams.net" agent="Mozilla/5.0 (Windows NT 10.0; Win64; x64) AppleWebKit/537.36 (KHTML, like Gecko) Chrome/133.0.0.0 Safari/537.36" version="26.1.0" pages="2">
  <diagram name="Home" id="SR8mtuqwdaS-2UmKR9v1">
    <mxGraphModel dx="989" dy="532" grid="1" gridSize="10" guides="1" tooltips="1" connect="1" arrows="1" fold="1" page="1" pageScale="1" pageWidth="850" pageHeight="1100" math="0" shadow="0">
      <root>
        <mxCell id="0" />
        <mxCell id="1" parent="0" />
        <mxCell id="4UCHAvrTSgLMnVHtcijp-2" value="" style="rounded=0;whiteSpace=wrap;html=1;" vertex="1" parent="1">
          <mxGeometry x="165" y="160" width="520" height="310" as="geometry" />
        </mxCell>
        <mxCell id="4UCHAvrTSgLMnVHtcijp-3" value="Input your desired currencies" style="rounded=0;whiteSpace=wrap;html=1;" vertex="1" parent="1">
          <mxGeometry x="238" y="180" width="382" height="60" as="geometry" />
        </mxCell>
        <mxCell id="4UCHAvrTSgLMnVHtcijp-4" value="Number input" style="rounded=0;whiteSpace=wrap;html=1;" vertex="1" parent="1">
          <mxGeometry x="210" y="290" width="70" height="40" as="geometry" />
        </mxCell>
        <mxCell id="4UCHAvrTSgLMnVHtcijp-6" value="Number input" style="rounded=0;whiteSpace=wrap;html=1;" vertex="1" parent="1">
          <mxGeometry x="470" y="290" width="70" height="40" as="geometry" />
        </mxCell>
        <mxCell id="4UCHAvrTSgLMnVHtcijp-7" value="Currency input dropdown" style="rounded=0;whiteSpace=wrap;html=1;" vertex="1" parent="1">
          <mxGeometry x="290" y="290" width="70" height="40" as="geometry" />
        </mxCell>
        <mxCell id="4UCHAvrTSgLMnVHtcijp-8" value="=" style="text;html=1;align=center;verticalAlign=middle;whiteSpace=wrap;rounded=0;" vertex="1" parent="1">
          <mxGeometry x="395.5" y="295" width="60" height="30" as="geometry" />
        </mxCell>
        <mxCell id="4UCHAvrTSgLMnVHtcijp-9" value="Currency input dropdown" style="rounded=0;whiteSpace=wrap;html=1;" vertex="1" parent="1">
          <mxGeometry x="560" y="290" width="70" height="40" as="geometry" />
        </mxCell>
        <mxCell id="4UCHAvrTSgLMnVHtcijp-10" value="Currency Converter" style="rounded=0;whiteSpace=wrap;html=1;" vertex="1" parent="1">
          <mxGeometry width="840" height="40" as="geometry" />
        </mxCell>
        <mxCell id="4UCHAvrTSgLMnVHtcijp-11" value="" style="strokeWidth=1;html=1;shadow=0;dashed=0;shape=mxgraph.android.rrect;rSize=0;strokeColor=#888888;fillColor=#444444;" vertex="1" parent="1">
          <mxGeometry x="10" y="90" width="185" height="40" as="geometry" />
        </mxCell>
        <mxCell id="4UCHAvrTSgLMnVHtcijp-12" value="Menu Item 1: Home" style="strokeColor=inherit;fillColor=inherit;gradientColor=inherit;strokeWidth=1;html=1;shadow=0;dashed=0;shape=mxgraph.android.rrect;rSize=0;align=left;spacingLeft=10;fontSize=8;fontColor=#ffffff;" vertex="1" parent="4UCHAvrTSgLMnVHtcijp-11">
          <mxGeometry width="185" height="20" as="geometry" />
        </mxCell>
        <mxCell id="4UCHAvrTSgLMnVHtcijp-13" value="Menu Item 2: Table of Currencies" style="strokeColor=inherit;fillColor=inherit;gradientColor=inherit;strokeWidth=1;html=1;shadow=0;dashed=0;shape=mxgraph.android.rrect;rSize=0;align=left;spacingLeft=10;fontSize=8;fontColor=#ffffff;" vertex="1" parent="4UCHAvrTSgLMnVHtcijp-11">
          <mxGeometry y="20" width="185" height="20" as="geometry" />
        </mxCell>
        <mxCell id="4UCHAvrTSgLMnVHtcijp-16" value="" style="shape=image;html=1;verticalAlign=top;verticalLabelPosition=bottom;labelBackgroundColor=#ffffff;imageAspect=0;aspect=fixed;image=https://cdn1.iconfinder.com/data/icons/essential-39/64/Hamburger_Menu-128.png" vertex="1" parent="1">
          <mxGeometry width="40" height="40" as="geometry" />
        </mxCell>
        <mxCell id="4UCHAvrTSgLMnVHtcijp-17" value="" style="endArrow=classic;html=1;rounded=0;fillColor=#dae8fc;strokeColor=#6c8ebf;" edge="1" parent="1">
          <mxGeometry width="50" height="50" relative="1" as="geometry">
            <mxPoint x="19.66" y="30" as="sourcePoint" />
            <mxPoint x="19.66" y="80" as="targetPoint" />
          </mxGeometry>
        </mxCell>
        <mxCell id="4UCHAvrTSgLMnVHtcijp-18" value="Visit my portfolio [Link]" style="rounded=0;whiteSpace=wrap;html=1;" vertex="1" parent="1">
          <mxGeometry y="1040" width="850" height="60" as="geometry" />
        </mxCell>
      </root>
    </mxGraphModel>
  </diagram>
  <diagram name="Table of Currencies" id="uy7EuX9245HXXW5f_DAS">
    <mxGraphModel dx="1195" dy="643" grid="1" gridSize="10" guides="1" tooltips="1" connect="1" arrows="1" fold="1" page="1" pageScale="1" pageWidth="850" pageHeight="1100" math="0" shadow="0">
      <root>
        <mxCell id="wSzO7jNGj0nulMeWr10z-0" />
        <mxCell id="wSzO7jNGj0nulMeWr10z-1" parent="wSzO7jNGj0nulMeWr10z-0" />
        <mxCell id="wSzO7jNGj0nulMeWr10z-2" value="" style="rounded=0;whiteSpace=wrap;html=1;" vertex="1" parent="wSzO7jNGj0nulMeWr10z-1">
          <mxGeometry x="160" y="160" width="520" height="550" as="geometry" />
        </mxCell>
        <mxCell id="wSzO7jNGj0nulMeWr10z-3" value="Table of Currencies" style="rounded=0;whiteSpace=wrap;html=1;" vertex="1" parent="wSzO7jNGj0nulMeWr10z-1">
          <mxGeometry x="234" y="70" width="382" height="60" as="geometry" />
        </mxCell>
        <mxCell id="wSzO7jNGj0nulMeWr10z-6" value="Exchange rates against:&amp;nbsp;" style="rounded=0;whiteSpace=wrap;html=1;" vertex="1" parent="wSzO7jNGj0nulMeWr10z-1">
          <mxGeometry x="230" y="170" width="390" height="40" as="geometry" />
        </mxCell>
        <mxCell id="wSzO7jNGj0nulMeWr10z-8" value="&lt;font style=&quot;font-size: 5px;&quot;&gt;Currency input dropdown&lt;/font&gt;" style="rounded=0;whiteSpace=wrap;html=1;" vertex="1" parent="wSzO7jNGj0nulMeWr10z-1">
          <mxGeometry x="535" y="175" width="60" height="30" as="geometry" />
        </mxCell>
        <mxCell id="wSzO7jNGj0nulMeWr10z-9" value="Currency Converter" style="rounded=0;whiteSpace=wrap;html=1;" vertex="1" parent="wSzO7jNGj0nulMeWr10z-1">
          <mxGeometry width="840" height="40" as="geometry" />
        </mxCell>
        <mxCell id="wSzO7jNGj0nulMeWr10z-10" value="" style="strokeWidth=1;html=1;shadow=0;dashed=0;shape=mxgraph.android.rrect;rSize=0;strokeColor=#888888;fillColor=#444444;" vertex="1" parent="wSzO7jNGj0nulMeWr10z-1">
          <mxGeometry x="10" y="90" width="185" height="40" as="geometry" />
        </mxCell>
        <mxCell id="wSzO7jNGj0nulMeWr10z-11" value="Menu Item 1: Home" style="strokeColor=inherit;fillColor=inherit;gradientColor=inherit;strokeWidth=1;html=1;shadow=0;dashed=0;shape=mxgraph.android.rrect;rSize=0;align=left;spacingLeft=10;fontSize=8;fontColor=#ffffff;" vertex="1" parent="wSzO7jNGj0nulMeWr10z-10">
          <mxGeometry width="185" height="20" as="geometry" />
        </mxCell>
        <mxCell id="wSzO7jNGj0nulMeWr10z-12" value="Menu Item 2: Table of Currencies" style="strokeColor=inherit;fillColor=inherit;gradientColor=inherit;strokeWidth=1;html=1;shadow=0;dashed=0;shape=mxgraph.android.rrect;rSize=0;align=left;spacingLeft=10;fontSize=8;fontColor=#ffffff;" vertex="1" parent="wSzO7jNGj0nulMeWr10z-10">
          <mxGeometry y="20" width="185" height="20" as="geometry" />
        </mxCell>
        <mxCell id="wSzO7jNGj0nulMeWr10z-13" value="" style="shape=image;html=1;verticalAlign=top;verticalLabelPosition=bottom;labelBackgroundColor=#ffffff;imageAspect=0;aspect=fixed;image=https://cdn1.iconfinder.com/data/icons/essential-39/64/Hamburger_Menu-128.png" vertex="1" parent="wSzO7jNGj0nulMeWr10z-1">
          <mxGeometry width="40" height="40" as="geometry" />
        </mxCell>
        <mxCell id="wSzO7jNGj0nulMeWr10z-14" value="" style="endArrow=classic;html=1;rounded=0;fillColor=#dae8fc;strokeColor=#6c8ebf;" edge="1" parent="wSzO7jNGj0nulMeWr10z-1">
          <mxGeometry width="50" height="50" relative="1" as="geometry">
            <mxPoint x="19.66" y="30" as="sourcePoint" />
            <mxPoint x="19.66" y="80" as="targetPoint" />
          </mxGeometry>
        </mxCell>
        <mxCell id="wSzO7jNGj0nulMeWr10z-15" value="Visit my portfolio [Link]" style="rounded=0;whiteSpace=wrap;html=1;" vertex="1" parent="wSzO7jNGj0nulMeWr10z-1">
          <mxGeometry y="1040" width="850" height="60" as="geometry" />
        </mxCell>
        <mxCell id="3WToCesfHVLCoAIonuWH-27" value="" style="verticalLabelPosition=bottom;verticalAlign=top;html=1;shape=mxgraph.basic.rect;fillColor2=none;strokeWidth=1;size=20;indent=5;align=center;" vertex="1" parent="wSzO7jNGj0nulMeWr10z-1">
          <mxGeometry x="230" y="230" width="210" height="40" as="geometry" />
        </mxCell>
        <mxCell id="3WToCesfHVLCoAIonuWH-28" value="" style="verticalLabelPosition=bottom;verticalAlign=top;html=1;shape=mxgraph.basic.rect;fillColor2=none;strokeWidth=1;size=20;indent=5;" vertex="1" parent="wSzO7jNGj0nulMeWr10z-1">
          <mxGeometry x="430" y="230" width="190" height="40" as="geometry" />
        </mxCell>
        <mxCell id="3WToCesfHVLCoAIonuWH-29" value="Currency" style="text;html=1;align=center;verticalAlign=middle;whiteSpace=wrap;rounded=0;" vertex="1" parent="wSzO7jNGj0nulMeWr10z-1">
          <mxGeometry x="290" y="235" width="60" height="30" as="geometry" />
        </mxCell>
        <mxCell id="3WToCesfHVLCoAIonuWH-30" value="Rate" style="text;html=1;align=center;verticalAlign=middle;whiteSpace=wrap;rounded=0;" vertex="1" parent="wSzO7jNGj0nulMeWr10z-1">
          <mxGeometry x="490" y="235" width="60" height="30" as="geometry" />
        </mxCell>
        <mxCell id="3WToCesfHVLCoAIonuWH-31" value="" style="rounded=0;whiteSpace=wrap;html=1;" vertex="1" parent="wSzO7jNGj0nulMeWr10z-1">
          <mxGeometry x="230" y="270" width="390" height="380" as="geometry" />
        </mxCell>
        <mxCell id="3WToCesfHVLCoAIonuWH-32" value="List of all 33 rates with their conversions" style="text;html=1;align=center;verticalAlign=middle;whiteSpace=wrap;rounded=0;" vertex="1" parent="wSzO7jNGj0nulMeWr10z-1">
          <mxGeometry x="305" y="420" width="230" height="80" as="geometry" />
        </mxCell>
        <mxCell id="Tqv5CfW_z5qx0Z43Hx9d-0" value="1" style="text;html=1;align=center;verticalAlign=middle;whiteSpace=wrap;rounded=0;" vertex="1" parent="wSzO7jNGj0nulMeWr10z-1">
          <mxGeometry x="475" y="175" width="60" height="30" as="geometry" />
        </mxCell>
      </root>
    </mxGraphModel>
  </diagram>
</mxfile>
